<svg width="131" height="23" viewBox="0 0 131 23" fill="none" xmlns="http://www.w3.org/2000/svg">
<g opacity="0.9">
<path d="M0.672 22.4C0.48 22.4 0.32 22.336 0.192 22.208C0.064 22.0587 0 21.8987 0 21.728C0 21.6213 0.0106667 21.5253 0.032 21.44L7.648 0.864C7.712 0.629334 7.84 0.426668 8.032 0.256001C8.224 0.0853335 8.49067 0 8.832 0H12.928C13.2693 0 13.536 0.0853335 13.728 0.256001C13.92 0.426668 14.048 0.629334 14.112 0.864L21.728 21.44C21.7493 21.5253 21.76 21.6213 21.76 21.728C21.76 21.8987 21.696 22.0587 21.568 22.208C21.44 22.336 21.28 22.4 21.088 22.4H17.76C17.44 22.4 17.2053 22.3253 17.056 22.176C16.9067 22.0267 16.8107 21.888 16.768 21.76L15.392 18.176H6.368L4.992 21.76C4.94933 21.888 4.85333 22.0267 4.704 22.176C4.55467 22.3253 4.32 22.4 4 22.4H0.672ZM7.552 14.048H14.176L10.88 4.832L7.552 14.048Z" fill="white"/>
<path d="M25.9552 22.4C25.7206 22.4 25.5286 22.3253 25.3792 22.176C25.2299 22.0267 25.1552 21.8347 25.1552 21.6V0.800001C25.1552 0.565334 25.2299 0.373334 25.3792 0.224001C25.5286 0.074667 25.7206 0 25.9552 0H34.4353C37.1019 0 39.2033 0.618667 40.7393 1.856C42.2753 3.072 43.0433 4.832 43.0433 7.136C43.0433 8.69333 42.6699 9.99467 41.9233 11.04C41.1766 12.0853 40.1739 12.864 38.9152 13.376L43.4272 21.376C43.4912 21.504 43.5233 21.6213 43.5233 21.728C43.5233 21.8987 43.4592 22.0587 43.3312 22.208C43.2033 22.336 43.0433 22.4 42.8513 22.4H39.2993C38.9153 22.4 38.6273 22.304 38.4353 22.112C38.2433 21.8987 38.1046 21.7067 38.0193 21.536L34.1152 14.208H30.2432V21.6C30.2432 21.8347 30.1686 22.0267 30.0192 22.176C29.8699 22.3253 29.6779 22.4 29.4432 22.4H25.9552ZM30.2432 10.144H34.3393C35.5126 10.144 36.3766 9.87734 36.9313 9.344C37.5073 8.81067 37.7952 8.064 37.7952 7.104C37.7952 6.144 37.5179 5.38667 36.9633 4.832C36.4086 4.27733 35.5339 4 34.3393 4H30.2432V10.144Z" fill="white"/>
<path d="M53.117 22.4C52.8823 22.4 52.6903 22.3253 52.541 22.176C52.3917 22.0267 52.317 21.8347 52.317 21.6V4.448H46.493C46.2797 4.448 46.0983 4.37333 45.949 4.224C45.7997 4.07467 45.725 3.89333 45.725 3.68V0.800001C45.725 0.565334 45.7997 0.373334 45.949 0.224001C46.0983 0.074667 46.2797 0 46.493 0H63.261C63.4957 0 63.6877 0.074667 63.837 0.224001C63.9863 0.373334 64.061 0.565334 64.061 0.800001V3.68C64.061 3.89333 63.9863 4.07467 63.837 4.224C63.6877 4.37333 63.4957 4.448 63.261 4.448H57.469V21.6C57.469 21.8347 57.3943 22.0267 57.245 22.176C57.0957 22.3253 56.9037 22.4 56.669 22.4H53.117Z" fill="white"/>
<path d="M68.579 22.4C68.3443 22.4 68.1523 22.3253 68.003 22.176C67.8537 22.0267 67.779 21.8347 67.779 21.6V0.800001C67.779 0.565334 67.8537 0.373334 68.003 0.224001C68.1523 0.074667 68.3443 0 68.579 0H77.315C79.043 0 80.5363 0.266667 81.795 0.800001C83.075 1.33333 84.067 2.144 84.771 3.232C85.4963 4.29867 85.859 5.632 85.859 7.232C85.859 8.85333 85.4963 10.1973 84.771 11.264C84.067 12.3093 83.075 13.088 81.795 13.6C80.5363 14.112 79.043 14.368 77.315 14.368H73.027V21.6C73.027 21.8347 72.9523 22.0267 72.803 22.176C72.6537 22.3253 72.4617 22.4 72.227 22.4H68.579ZM72.931 10.4H77.155C78.243 10.4 79.0857 10.1333 79.683 9.6C80.3017 9.06667 80.611 8.26667 80.611 7.2C80.611 6.26133 80.3337 5.49333 79.779 4.896C79.2457 4.29867 78.371 4 77.155 4H72.931V10.4Z" fill="white"/>
<path d="M86.982 22.4C86.79 22.4 86.63 22.336 86.502 22.208C86.374 22.0587 86.31 21.8987 86.31 21.728C86.31 21.6213 86.3207 21.5253 86.342 21.44L93.958 0.864C94.022 0.629334 94.15 0.426668 94.342 0.256001C94.534 0.0853335 94.8007 0 95.142 0H99.238C99.5793 0 99.846 0.0853335 100.038 0.256001C100.23 0.426668 100.358 0.629334 100.422 0.864L108.038 21.44C108.059 21.5253 108.07 21.6213 108.07 21.728C108.07 21.8987 108.006 22.0587 107.878 22.208C107.75 22.336 107.59 22.4 107.398 22.4H104.07C103.75 22.4 103.515 22.3253 103.366 22.176C103.217 22.0267 103.121 21.888 103.078 21.76L101.702 18.176H92.678L91.302 21.76C91.2593 21.888 91.1633 22.0267 91.014 22.176C90.8647 22.3253 90.63 22.4 90.31 22.4H86.982ZM93.862 14.048H100.486L97.19 4.832L93.862 14.048Z" fill="white"/>
<path d="M112.265 22.4C112.031 22.4 111.839 22.3253 111.689 22.176C111.54 22.0267 111.465 21.8347 111.465 21.6V0.800001C111.465 0.565334 111.54 0.373334 111.689 0.224001C111.839 0.074667 112.031 0 112.265 0H120.297C122.431 0 124.212 0.341333 125.641 1.024C127.071 1.68533 128.159 2.66667 128.905 3.968C129.673 5.248 130.079 6.83733 130.121 8.736C130.143 9.67467 130.153 10.496 130.153 11.2C130.153 11.904 130.143 12.7147 130.121 13.632C130.057 15.616 129.663 17.2587 128.937 18.56C128.212 19.8613 127.145 20.832 125.737 21.472C124.329 22.0907 122.569 22.4 120.457 22.4H112.265ZM116.553 18.272H120.297C121.364 18.272 122.239 18.112 122.921 17.792C123.604 17.472 124.105 16.9707 124.425 16.288C124.767 15.584 124.948 14.6773 124.969 13.568C124.991 12.9493 125.001 12.3947 125.001 11.904C125.023 11.4133 125.023 10.9227 125.001 10.432C125.001 9.94133 124.991 9.39733 124.969 8.8C124.927 7.2 124.511 6.02667 123.721 5.28C122.953 4.512 121.759 4.128 120.137 4.128H116.553V18.272Z" fill="white"/>
</g>
</svg>
