<svg width="179" height="61" viewBox="0 0 179 61" fill="none" xmlns="http://www.w3.org/2000/svg">
<path d="M133.122 42.9428C132.934 42.9428 132.781 42.7899 132.781 42.6014V20.4135C132.781 18.5283 134.309 17 136.194 17H153.355C154.34 17 155.229 17.2402 156.021 17.7206C156.838 18.2011 157.487 18.8496 157.967 19.6663C158.471 20.459 158.724 21.3478 158.724 22.3327V37.6101C158.724 38.5709 158.471 39.4597 157.967 40.2764C157.487 41.0931 156.838 41.7417 156.021 42.2221C155.229 42.7025 154.34 42.9428 153.355 42.9428H133.122ZM138.33 37.3218H153.067V22.6209H138.33V37.3218Z" fill="white"/>
<path d="M71.4796 42.4533C71.2911 42.4533 71.1382 42.3004 71.1382 42.1119V20.4942C71.1382 18.609 72.6665 17.0807 74.5518 17.0807H91.2601C92.2233 17.0807 93.0926 17.3159 93.8678 17.7865C94.6666 18.257 95.3009 18.8922 95.7708 19.6921C96.2641 20.4919 96.5108 21.3624 96.5108 22.3034V28.8671C96.5108 29.8081 96.2641 30.6786 95.7708 31.4785C95.3009 32.2784 94.6666 32.9135 93.8678 33.3841C93.0926 33.8546 92.2233 34.0898 91.2601 34.0898L76.6004 34.1251V42.1119C76.6004 42.3004 76.4476 42.4533 76.259 42.4533H71.4796ZM76.6004 28.5848H90.9782V22.5504H76.6004V28.5848Z" fill="white"/>
<path d="M101.944 42.932C101.756 42.932 101.603 42.7792 101.603 42.5906V22.3946C101.603 21.4132 101.842 20.5275 102.321 19.7376C102.8 18.9238 103.446 18.2775 104.26 17.7988C105.074 17.3201 105.959 17.0807 106.917 17.0807H122.104C123.086 17.0807 123.971 17.3201 124.761 17.7988C125.575 18.2775 126.221 18.9238 126.7 19.7376C127.203 20.5275 127.454 21.4132 127.454 22.3946V42.5906C127.454 42.7792 127.301 42.932 127.113 42.932H122.158C121.97 42.932 121.817 42.7792 121.817 42.5906V34.6021H107.168V42.5906C107.168 42.7792 107.015 42.932 106.827 42.932H101.944ZM107.168 29.001H121.817V22.6818H107.168V29.001Z" fill="white"/>
<path fill-rule="evenodd" clip-rule="evenodd" d="M31.2206 24.9652C31.2204 25.1115 31.1426 25.2465 31.0165 25.3197L26.2886 28.0596C26.1622 28.1328 26.0065 28.1328 25.8801 28.0596L5.02006 15.9673C3.43835 15.0504 3.43835 12.7591 5.02006 11.8422L24.8979 0.319354C25.632 -0.106228 26.5366 -0.106466 27.271 0.318729L35.8108 5.26314C35.9372 5.33632 36.0151 5.47165 36.0151 5.6181V7.98166H40.3679C40.4394 7.98166 40.5096 8.00049 40.5716 8.03627L50.0607 13.5162C50.1871 13.5892 50.2651 13.7242 50.2654 13.8706C50.2656 14.0169 50.1881 14.1523 50.062 14.2258L45.3008 16.9991C45.1744 17.0728 45.0183 17.073 44.8917 16.9996L37.4285 12.6773H33.7186L22.1044 19.4187L31.0172 24.6104C31.1433 24.6838 31.2208 24.819 31.2206 24.9652ZM12.5859 13.9033L16.5278 16.1718L28.4395 9.25773V7.45978L26.0523 6.09076L12.5859 13.9033ZM44.5068 51.5055C44.6381 51.4293 44.7189 51.2889 44.7189 51.1371V28.4585L54.4405 22.8159C54.5718 22.7397 54.6526 22.5993 54.6526 22.4475V18.4922C54.6526 17.3751 53.4433 16.6771 52.476 17.2358L30.204 30.1006C29.4382 30.5429 28.9665 31.3602 28.9665 32.2445V36.7923C28.9665 36.9444 29.0476 37.085 29.1794 37.1611C29.3112 37.2372 29.4735 37.2373 29.6053 37.1612L38.9001 31.7988V54.0199C38.9001 54.1723 38.9815 54.3131 39.1136 54.3891C39.2456 54.4651 39.4082 54.4648 39.54 54.3884L44.5068 51.5055ZM5.8188 48.8177V38.0593L19.8674 46.1806V57.3968C19.8674 57.5486 19.9482 57.689 20.0795 57.7652L25.0464 60.648C25.1781 60.7245 25.3407 60.7248 25.4728 60.6488C25.6048 60.5728 25.6862 60.432 25.6862 60.2796V32.7733C25.6862 31.8889 25.2145 31.0717 24.4487 30.6293L3.71431 18.6527C2.0637 17.6993 0 18.8905 0 20.7966V45.9348C0 46.0867 0.0808211 46.227 0.212141 46.3032L5.17899 49.1861C5.31076 49.2626 5.47335 49.2629 5.60539 49.1868C5.73742 49.1108 5.8188 48.97 5.8188 48.8177ZM5.8188 31.3442V26.5973L19.8674 34.7187V39.4656L5.8188 31.3442Z" fill="url(#paint0_linear_414_93)"/>
<defs>
<linearGradient id="paint0_linear_414_93" x1="50.6913" y1="92.4371" x2="16.8261" y2="-10.6494" gradientUnits="userSpaceOnUse">
<stop offset="0.395833" stop-color="#BE3DB1"/>
<stop offset="0.726585" stop-color="#6D1E9F"/>
</linearGradient>
</defs>
</svg>
