<svg width="122" height="42" viewBox="0 0 122 42" fill="none" xmlns="http://www.w3.org/2000/svg">
<path d="M90.9669 29.8442C90.8381 29.8442 90.7336 29.7398 90.7336 29.611V14.4493C90.7336 13.161 91.778 12.1167 93.0662 12.1167H104.793C105.466 12.1167 106.073 12.2808 106.615 12.6091C107.173 12.9374 107.616 13.3806 107.944 13.9387C108.289 14.4804 108.461 15.0877 108.461 15.7607V26.2003C108.461 26.8568 108.289 27.4642 107.944 28.0223C107.616 28.5803 107.173 29.0235 106.615 29.3518C106.073 29.6801 105.466 29.8442 104.793 29.8442H90.9669ZM94.5254 26.0033H104.596V15.9577H94.5254V26.0033Z" fill="white"/>
<path d="M48.8443 29.5097C48.7155 29.5097 48.6111 29.4053 48.6111 29.2765V14.5044C48.6111 13.2161 49.6554 12.1718 50.9437 12.1718H62.361C63.0192 12.1718 63.6132 12.3326 64.143 12.6541C64.6888 12.9756 65.1222 13.4097 65.4433 13.9562C65.7804 14.5028 65.949 15.0976 65.949 15.7407V20.2259C65.949 20.8689 65.7804 21.4637 65.4433 22.0103C65.1222 22.5569 64.6888 22.9909 64.143 23.3125C63.6132 23.634 63.0192 23.7947 62.361 23.7947L52.3436 23.8188V29.2765C52.3436 29.4053 52.2391 29.5097 52.1103 29.5097H48.8443ZM52.3436 20.033H62.1684V15.9095H52.3436V20.033Z" fill="white"/>
<path d="M69.6617 29.8369C69.5329 29.8369 69.4285 29.7324 69.4285 29.6036V15.803C69.4285 15.1323 69.592 14.5272 69.9192 13.9874C70.2463 13.4313 70.6879 12.9896 71.244 12.6625C71.8002 12.3354 72.4054 12.1718 73.0596 12.1718H83.4378C84.1085 12.1718 84.7136 12.3354 85.2534 12.6625C85.8095 12.9896 86.2512 13.4313 86.5783 13.9874C86.9218 14.5272 87.0935 15.1323 87.0935 15.803V29.6036C87.0935 29.7324 86.9891 29.8369 86.8603 29.8369H83.4748C83.346 29.8369 83.2416 29.7324 83.2416 29.6036V24.1448H73.2314V29.6036C73.2314 29.7324 73.1269 29.8369 72.9981 29.8369H69.6617ZM73.2314 20.3174H83.2416V15.9992H73.2314V20.3174Z" fill="white"/>
<path fill-rule="evenodd" clip-rule="evenodd" d="M21.3341 17.5596C21.334 17.6595 21.2808 17.7518 21.1946 17.8018L17.9638 19.6741C17.8775 19.7241 17.7711 19.7241 17.6847 19.674L3.43035 11.411C2.34952 10.7844 2.34952 9.21874 3.43035 8.5922L17.0135 0.718225C17.5152 0.427411 18.1333 0.427248 18.6352 0.717798L24.4707 4.09648C24.5571 4.14649 24.6103 4.23896 24.6103 4.33903V5.95413H27.5847C27.6336 5.95413 27.6816 5.967 27.7239 5.99145L34.2081 9.73605C34.2945 9.78592 34.3478 9.87824 34.348 9.97824C34.3482 10.0782 34.2952 10.1707 34.209 10.2209L30.9555 12.1161C30.8691 12.1664 30.7625 12.1665 30.676 12.1164L25.5761 9.1628H23.041L15.1047 13.7694L21.1951 17.3171C21.2812 17.3672 21.3342 17.4597 21.3341 17.5596ZM8.60034 10.0006L11.294 11.5507L19.4337 6.82611V5.59752L17.8024 4.66202L8.60034 10.0006ZM30.4129 35.6954C30.5027 35.6433 30.5579 35.5474 30.5579 35.4437V19.9466L37.201 16.0909C37.2907 16.0388 37.3459 15.9429 37.3459 15.8391V13.1363C37.3459 12.373 36.5195 11.896 35.8585 12.2778L20.6394 21.0687C20.1161 21.371 19.7937 21.9294 19.7937 22.5338V25.6414C19.7937 25.7454 19.8492 25.8414 19.9392 25.8934C20.0293 25.9455 20.1402 25.9455 20.2303 25.8935L26.5817 22.2292V37.4136C26.5817 37.5177 26.6373 37.6139 26.7276 37.6659C26.8178 37.7178 26.9289 37.7176 27.0189 37.6654L30.4129 35.6954ZM3.97618 33.8587V26.5072L13.576 32.0567V39.7211C13.576 39.8249 13.6313 39.9208 13.721 39.9729L17.115 41.9428C17.2051 41.9951 17.3162 41.9953 17.4064 41.9433C17.4966 41.8914 17.5522 41.7952 17.5522 41.6911V22.895C17.5522 22.2907 17.2299 21.7323 16.7066 21.43L2.53811 13.246C1.4102 12.5945 0 13.4085 0 14.711V31.8888C0 31.9925 0.0552278 32.0884 0.144963 32.1405L3.53897 34.1105C3.62902 34.1627 3.74012 34.1629 3.83035 34.111C3.92057 34.059 3.97618 33.9628 3.97618 33.8587ZM3.97618 21.9185V18.6748L13.576 24.2244V27.4681L3.97618 21.9185Z" fill="url(#paint0_linear_1260_369)"/>
<defs>
<linearGradient id="paint0_linear_1260_369" x1="34.6391" y1="63.6654" x2="11.4979" y2="-6.77712" gradientUnits="userSpaceOnUse">
<stop offset="0.395833" stop-color="#BE3DB1"/>
<stop offset="0.726585" stop-color="#6D1E9F"/>
</linearGradient>
</defs>
</svg>
