<svg width="87" height="30" viewBox="0 0 87 30" fill="none" xmlns="http://www.w3.org/2000/svg">
<path d="M70.9959 22.8735C70.8777 22.8735 70.782 22.7777 70.782 22.6596V9.49118C70.782 8.30984 71.7396 7.35217 72.921 7.35217H83.0912C83.6805 7.35217 84.2122 7.49589 84.6865 7.78332C85.1751 8.07075 85.5631 8.45878 85.8506 8.94742C86.1524 9.42168 86.3033 9.95343 86.3033 10.5427V19.683C86.3033 20.2578 86.1524 20.7896 85.8506 21.2782C85.5631 21.7669 85.1751 22.1549 84.6865 22.4423C84.2122 22.7297 83.6805 22.8735 83.0912 22.8735H70.9959ZM74.1018 19.5105H82.9188V10.7151H74.1018V19.5105Z" fill="white"/>
<path d="M34.1156 22.5806C33.9975 22.5806 33.9017 22.4848 33.9017 22.3667V9.53946C33.9017 8.35812 34.8594 7.40045 36.0407 7.40045H45.9404C46.5167 7.40045 47.0368 7.5412 47.5006 7.82271C47.9785 8.10421 48.358 8.48425 48.6391 8.9628C48.9343 9.44136 49.0819 9.96215 49.0819 10.5252V14.4522C49.0819 15.0152 48.9343 15.5359 48.6391 16.0145C48.358 16.4931 47.9785 16.8731 47.5006 17.1546C47.0368 17.4361 46.5167 17.5769 45.9404 17.5769L37.1697 17.598V22.3667C37.1697 22.4848 37.0739 22.5806 36.9558 22.5806H34.1156ZM37.1697 14.2832H45.7718V10.6729H37.1697V14.2832Z" fill="white"/>
<path d="M52.3422 22.867C52.2241 22.867 52.1283 22.7713 52.1283 22.6531V10.5797C52.1283 9.99254 52.2715 9.46266 52.5579 8.99007C52.8443 8.50316 53.231 8.1165 53.7179 7.83008C54.2048 7.54366 54.7347 7.40045 55.3075 7.40045H64.3942C64.9813 7.40045 65.5112 7.54366 65.9838 7.83008C66.4707 8.1165 66.8573 8.50316 67.1438 8.99007C67.4445 9.46266 67.5949 9.99254 67.5949 10.5797V22.6531C67.5949 22.7713 67.4991 22.867 67.381 22.867H64.4362C64.3181 22.867 64.2223 22.7713 64.2223 22.6531V17.8834H55.4579V22.6531C55.4579 22.7713 55.3621 22.867 55.244 22.867H52.3422ZM55.4579 14.5323H64.2223V10.7515H55.4579V14.5323Z" fill="white"/>
<path fill-rule="evenodd" clip-rule="evenodd" d="M21.8979 25.6207C21.9641 25.5823 22.0049 25.5115 22.0049 25.4349V13.9937L26.9093 11.147C26.9756 11.1086 27.0164 11.0378 27.0164 10.9612V8.96575C27.0164 8.4022 26.4062 8.05002 25.9182 8.3319L14.6822 14.8221C14.2958 15.0453 14.0579 15.4575 14.0579 15.9037V18.198C14.0579 18.2748 14.0988 18.3457 14.1653 18.3841C14.2318 18.4225 14.3137 18.4225 14.3802 18.3841L19.0693 15.6789V26.8892C19.0693 26.9661 19.1104 27.0371 19.177 27.0755C19.2436 27.1138 19.3256 27.1137 19.3921 27.0751L21.8979 25.6207Z" fill="#9EFAFE"/>
<path fill-rule="evenodd" clip-rule="evenodd" d="M2.93555 24.0026V18.5751L10.023 22.6722V28.3307C10.023 28.4073 10.0637 28.4781 10.13 28.5166L12.6357 29.9709C12.7022 30.0095 12.7842 30.0097 12.8508 29.9713C12.9174 29.933 12.9585 29.8619 12.9585 29.7851V15.9083C12.9585 15.4621 12.7205 15.0499 12.3342 14.8267L1.87384 8.78457C1.04112 8.30357 0 8.90452 0 9.86618V22.5482C0 22.6248 0.0407737 22.6956 0.107024 22.7341L2.61276 24.1885C2.67924 24.227 2.76127 24.2272 2.82788 24.1888C2.89449 24.1505 2.93555 24.0795 2.93555 24.0026ZM2.93555 15.1874V12.7926L10.023 16.8897V19.2845L2.93555 15.1874Z" fill="#6B1495"/>
<path fill-rule="evenodd" clip-rule="evenodd" d="M15.8341 12.58C15.8972 12.5437 15.9361 12.4766 15.9362 12.404C15.9362 12.3313 15.8975 12.2641 15.8345 12.2276L11.3793 9.64816L17.1848 6.29869H19.0393L22.7699 8.44626C22.8332 8.48269 22.9112 8.4826 22.9744 8.44601L25.3543 7.06807C25.4174 7.03157 25.4561 6.9643 25.456 6.89159C25.4558 6.81888 25.4168 6.75176 25.3537 6.71549L20.6104 3.99281C20.5794 3.97504 20.5443 3.96568 20.5086 3.96568H18.3328V2.79135C18.3328 2.71858 18.2938 2.65135 18.2306 2.61499L13.9619 0.15836C13.5948 -0.0528978 13.1426 -0.0527792 12.7756 0.158671L2.83944 5.88381C2.0488 6.33936 2.0488 7.47777 2.83944 7.93333L11.743 13.0635C12.1568 13.3019 12.8994 13.6584 13.3769 13.6832C13.7457 13.7024 14.339 13.4413 14.6525 13.2607L15.8341 12.58ZM8.59177 8.03495L6.62134 6.90785L13.3527 3.02619L14.546 3.70639V4.59969L8.59177 8.03495Z" fill="#E230E6"/>
</svg>
