<svg width="390" height="951" viewBox="0 0 390 951" fill="none" xmlns="http://www.w3.org/2000/svg">
<rect x="492.988" y="188.024" width="95.6365" height="95.6365" transform="rotate(150 492.988 188.024)" fill="#4E727C" fill-opacity="0.05"/>
<rect x="454.482" y="331.73" width="95.6365" height="95.6365" transform="rotate(150 454.482 331.73)" fill="#4E727C" fill-opacity="0.05"/>
<rect x="507.082" y="422.836" width="95.6365" height="95.6365" transform="rotate(150 507.082 422.836)" fill="#00C6FD" fill-opacity="0.05"/>
<rect x="401.882" y="240.624" width="95.6365" height="95.6365" transform="rotate(150 401.882 240.624)" fill="#4E727C" fill-opacity="0.05"/>
<rect x="468.576" y="566.542" width="95.6365" height="95.6365" transform="rotate(150 468.576 566.542)" fill="#4E727C" fill-opacity="0.05"/>
<rect x="415.976" y="475.436" width="95.6365" height="95.6365" transform="rotate(150 415.976 475.436)" fill="#4E727C" fill-opacity="0.05"/>
<rect x="310.776" y="293.224" width="95.6365" height="95.6365" transform="rotate(150 310.776 293.224)" fill="#00C6FD" fill-opacity="0.05"/>
<rect x="481.574" y="798.593" width="95.1018" height="95.1018" transform="rotate(150 481.574 798.593)" fill="#4E727C" fill-opacity="0.05"/>
<rect x="376.962" y="617.4" width="95.1018" height="95.1018" transform="rotate(150 376.962 617.4)" fill="#4E727C" fill-opacity="0.05"/>
<rect x="505.85" y="422.191" width="95.1018" height="95.1018" transform="rotate(150 505.85 422.191)" fill="#4E727C" fill-opacity="0.05"/>
<rect x="429.269" y="707.996" width="95.1018" height="95.1018" transform="rotate(150 429.269 707.996)" fill="#4E727C" fill-opacity="0.05"/>
<rect x="324.656" y="526.803" width="95.1018" height="95.1018" transform="rotate(150 324.656 526.803)" fill="#4E727C" fill-opacity="0.05"/>
<rect x="390.978" y="850.899" width="95.1018" height="95.1018" transform="rotate(150 390.978 850.899)" fill="#4E727C" fill-opacity="0.05"/>
<rect x="287.041" y="669.887" width="96.0906" height="96.0906" transform="rotate(150 287.041 669.887)" stroke="white" stroke-opacity="0.07" stroke-width="0.988713"/>
<rect x="467.559" y="565.094" width="95.1018" height="95.1018" transform="rotate(150 467.559 565.094)" fill="#4E727C" fill-opacity="0.05"/>
<rect x="519.865" y="655.69" width="95.1018" height="95.1018" transform="rotate(150 519.865 655.69)" fill="#4E727C" fill-opacity="0.05"/>
<rect x="415.253" y="474.497" width="95.1018" height="95.1018" transform="rotate(150 415.253 474.497)" fill="#4E727C" fill-opacity="0.05"/>
<rect x="338.672" y="760.302" width="95.1018" height="95.1018" transform="rotate(150 338.672 760.302)" fill="#4E727C" fill-opacity="0.05"/>
<rect x="234.06" y="579.109" width="95.1018" height="95.1018" transform="rotate(150 234.06 579.109)" fill="#4E727C" fill-opacity="0.05"/>
<rect x="300.381" y="903.205" width="95.1018" height="95.1018" transform="rotate(150 300.381 903.205)" fill="#4E727C" fill-opacity="0.05"/>
<rect x="195.769" y="722.012" width="95.1018" height="95.1018" transform="rotate(150 195.769 722.012)" fill="#4E727C" fill-opacity="0.05"/>
<rect x="248.075" y="812.608" width="95.1018" height="95.1018" transform="rotate(150 248.075 812.608)" fill="#4E727C" fill-opacity="0.05"/>
<rect x="143.463" y="631.415" width="95.1018" height="95.1018" transform="rotate(150 143.463 631.415)" fill="#4E727C" fill-opacity="0.05"/>
<rect x="91.0229" y="541.184" width="95.1018" height="95.1018" transform="rotate(150 91.0229 541.184)" fill="#4E727C" fill-opacity="0.05"/>
<rect x="272.216" y="436.572" width="95.1018" height="95.1018" transform="rotate(150 272.216 436.572)" fill="#4E727C" fill-opacity="0.05"/>
<rect x="167.604" y="255.379" width="95.1018" height="95.1018" transform="rotate(150 167.604 255.379)" fill="#4E727C" fill-opacity="0.05"/>
<rect x="219.91" y="345.975" width="95.1018" height="95.1018" transform="rotate(150 219.91 345.975)" fill="#4E727C" fill-opacity="0.05"/>
<rect x="115.298" y="164.782" width="95.1018" height="95.1018" transform="rotate(150 115.298 164.782)" fill="#4E727C" fill-opacity="0.05"/>
<rect x="38.717" y="450.587" width="95.1018" height="95.1018" transform="rotate(150 38.717 450.587)" fill="#4E727C" fill-opacity="0.05"/>
<rect x="0.42627" y="593.49" width="95.1018" height="95.1018" transform="rotate(150 0.42627 593.49)" fill="#4E727C" fill-opacity="0.05"/>
<rect x="181.62" y="488.878" width="95.1018" height="95.1018" transform="rotate(150 181.62 488.878)" fill="#4E727C" fill-opacity="0.05"/>
<rect x="77.0076" y="307.685" width="95.1018" height="95.1018" transform="rotate(150 77.0076 307.685)" fill="#4E727C" fill-opacity="0.05"/>
<rect x="129.314" y="398.281" width="95.1018" height="95.1018" transform="rotate(150 129.314 398.281)" fill="#4E727C" fill-opacity="0.05"/>
<rect x="24.7017" y="217.088" width="95.1018" height="95.1018" transform="rotate(150 24.7017 217.088)" fill="#4E727C" fill-opacity="0.05"/>
</svg>
