<svg width="390" height="799" viewBox="0 0 390 799" fill="none" xmlns="http://www.w3.org/2000/svg">
<rect x="495.06" y="579.109" width="95.1018" height="95.1018" transform="rotate(150 495.06 579.109)" fill="#4E727C" fill-opacity="0.05"/>
<rect x="456.769" y="722.012" width="95.1018" height="95.1018" transform="rotate(150 456.769 722.012)" fill="#4E727C" fill-opacity="0.05"/>
<rect x="509.075" y="812.608" width="95.1018" height="95.1018" transform="rotate(150 509.075 812.608)" fill="#4E727C" fill-opacity="0.05"/>
<rect x="404.463" y="631.415" width="95.1018" height="95.1018" transform="rotate(150 404.463 631.415)" fill="#4E727C" fill-opacity="0.05"/>
<rect x="352.023" y="541.184" width="95.1018" height="95.1018" transform="rotate(150 352.023 541.184)" fill="#4E727C" fill-opacity="0.05"/>
<rect x="428.604" y="255.379" width="95.1018" height="95.1018" transform="rotate(150 428.604 255.379)" fill="#4E727C" fill-opacity="0.05"/>
<rect x="480.91" y="345.975" width="95.1018" height="95.1018" transform="rotate(150 480.91 345.975)" fill="#4E727C" fill-opacity="0.05"/>
<rect x="376.298" y="164.782" width="95.1018" height="95.1018" transform="rotate(150 376.298 164.782)" fill="#4E727C" fill-opacity="0.05"/>
<rect x="299.717" y="450.587" width="95.1018" height="95.1018" transform="rotate(150 299.717 450.587)" fill="#4E727C" fill-opacity="0.05"/>
<rect x="195.105" y="269.394" width="95.1018" height="95.1018" transform="rotate(150 195.105 269.394)" fill="#4E727C" fill-opacity="0.05"/>
<rect x="261.426" y="593.49" width="95.1018" height="95.1018" transform="rotate(150 261.426 593.49)" fill="#4E727C" fill-opacity="0.05"/>
<rect x="156.814" y="412.297" width="95.1018" height="95.1018" transform="rotate(150 156.814 412.297)" fill="#4E727C" fill-opacity="0.05"/>
<rect x="442.62" y="488.878" width="95.1018" height="95.1018" transform="rotate(150 442.62 488.878)" fill="#4E727C" fill-opacity="0.05"/>
<rect x="338.008" y="307.685" width="95.1018" height="95.1018" transform="rotate(150 338.008 307.685)" fill="#4E727C" fill-opacity="0.05"/>
<rect x="390.314" y="398.281" width="95.1018" height="95.1018" transform="rotate(150 390.314 398.281)" fill="#4E727C" fill-opacity="0.05"/>
<rect x="285.702" y="217.088" width="95.1018" height="95.1018" transform="rotate(150 285.702 217.088)" fill="#4E727C" fill-opacity="0.05"/>
<rect x="209.12" y="502.893" width="95.1018" height="95.1018" transform="rotate(150 209.12 502.893)" fill="#4E727C" fill-opacity="0.05"/>
<rect x="104.508" y="321.7" width="95.1018" height="95.1018" transform="rotate(150 104.508 321.7)" fill="#4E727C" fill-opacity="0.05"/>
<rect x="170.83" y="645.796" width="95.1018" height="95.1018" transform="rotate(150 170.83 645.796)" fill="#4E727C" fill-opacity="0.05"/>
<rect x="66.2175" y="464.603" width="95.1018" height="95.1018" transform="rotate(150 66.2175 464.603)" fill="#4E727C" fill-opacity="0.05"/>
<rect x="118.523" y="555.199" width="95.1018" height="95.1018" transform="rotate(150 118.523 555.199)" fill="#4E727C" fill-opacity="0.05"/>
<rect x="13.9116" y="374.006" width="95.1018" height="95.1018" transform="rotate(150 13.9116 374.006)" fill="#00C6FD" fill-opacity="0.05"/>
</svg>
