<svg width="48" height="48" viewBox="0 0 48 48" fill="none" xmlns="http://www.w3.org/2000/svg">
<path d="M48 0H0V48H48V0Z" fill="#2E2C2B"/>
<path d="M11.4546 16.0532C11.4947 15.6573 11.3437 15.2661 11.0482 14.9997L8.03732 11.3726V10.8308H17.386L24.612 26.6784L30.9649 10.8308H39.877V11.3726L37.3027 13.8408C37.0808 14.01 36.9707 14.288 37.0167 14.5632V32.6984C36.9707 32.9736 37.0808 33.2517 37.3027 33.4208L39.8168 35.889V36.4308H27.1712V35.889L29.7756 33.3606C30.0315 33.1048 30.0316 33.0295 30.0316 32.6382V17.9795L22.7905 36.3706H21.8119L13.3816 17.9795V30.3055C13.3113 30.8237 13.4834 31.3454 13.8483 31.7202L17.2355 35.8288V36.3706H7.63086V35.8288L11.0181 31.7202C11.3803 31.3448 11.5423 30.8196 11.4546 30.3055V16.0532Z" fill="white"/>
</svg>
